# xmcd CD database file
#
# Track frame offsets:
#	150
#	21031
#	39566
#	60212
#	81632
#	101238
#	115282
#	132943
#	146410
#	165102
#	184515
#	200528
#	217385
#	233324
#	252045
#	271033
#	292552
#	311676
#
# Disc length: 4389 seconds
#
# Revision: 1
# Processed by: cddbd v1.5.2PL0 Copyright (c) Steve Scherf et al.
# Submitted via: jetAudio 5
#
DISCID=ef112312
DTITLE=Сборник - Любимой женщине
DYEAR=1900
DGENRE=
TTITLE0=За глаза твои карие
TTITLE1=Я тебя сегодня целовал
TTITLE2=Наташка
TTITLE3=Жёнушка
TTITLE4=В таверне
TTITLE5=Невеста
TTITLE6=Снегири
TTITLE7=Умница
TTITLE8=Дождись
TTITLE9=Как берёзонька дрожала
TTITLE10=Марина
TTITLE11=Обыкновенная
TTITLE12=Час с баранками
TTITLE13=Дорогая пропажа
TTITLE14=Королева сна
TTITLE15=Прежняя любовь
TTITLE16=Любимой женщине
TTITLE17=Светочка
EXTD=
EXTT0=
EXTT1=
EXTT2=
EXTT3=
EXTT4=
EXTT5=
EXTT6=
EXTT7=
EXTT8=
EXTT9=
EXTT10=
EXTT11=
EXTT12=
EXTT13=
EXTT14=
EXTT15=
EXTT16=
EXTT17=
PLAYORDER=
